<svg xmlns="http://www.w3.org/2000/svg" viewBox="0 0 24 24"><defs><style>.cls-1{fill:none;}.cls-2{fill:#06c;}</style></defs><title>Icons-Feedback-check</title><g id="Layer_55" data-name="Layer 55"><rect class="cls-1" width="24" height="24"/></g><g id="Livello_26" data-name="Livello 26"><path class="cls-2" d="M8.68,10.64H20.93a.75.75,0,0,1,.75.75v0a.75.75,0,0,1-.75.75H10.18a1.5,1.5,0,0,1-1.5-1.5v0a0,0,0,0,1,0,0Z" transform="translate(-3.61 14.07) rotate(-45)"/><path class="cls-2" d="M7.17,12.76h4.75a.75.75,0,0,1,.75.75v0a.75.75,0,0,1-.75.75H5.67a0,0,0,0,1,0,0v0a1.5,1.5,0,0,1,1.5-1.5Z" transform="translate(6.11 29.55) rotate(-135)"/></g></svg>