<svg xmlns="http://www.w3.org/2000/svg" viewBox="0 0 24 24"><defs><style>.cls-1{fill:none;}.cls-2{fill:#06c;}</style></defs><title>Icons-plus-circle</title><g id="Layer_55" data-name="Layer 55"><rect class="cls-1" width="24" height="24"/></g><g id="Livello_29" data-name="Livello 29"><path class="cls-2" d="M12,3a9,9,0,0,1,6.36,15.36A9,9,0,0,1,5.64,5.62,8.93,8.93,0,0,1,12,3m0-1a10,10,0,1,0,7.07,2.93A9.93,9.93,0,0,0,12,2Z"/><path class="cls-2" d="M16.25,11.25h-3.5V7.75a.75.75,0,0,0-1.5,0v3.5H7.75a.75.75,0,0,0,0,1.5h3.5v3.5a.75.75,0,0,0,1.5,0v-3.5h3.5a.75.75,0,0,0,0-1.5Z"/></g></svg>