<svg xmlns="http://www.w3.org/2000/svg" viewBox="0 0 24 24"><defs><style>.cls-1{fill:none;}.cls-2{fill:#06c;}</style></defs><title>Icons-check circle</title><g id="Layer_55" data-name="Layer 55"><rect class="cls-1" width="24" height="24"/></g><g id="constructions"><path class="cls-2" d="M20,12.05q0-.41,0-.81h0a.5.5,0,1,0-1,.1h0c0,.23,0,.47,0,.71A7,7,0,1,1,15.53,6h0l.19.12a.5.5,0,1,0,.53-.85l-.2-.12h0a8,8,0,1,0,3.95,7Z"/></g><g id="Livello_31" data-name="Livello 31"><path class="cls-2" d="M9.6,9.76H21.85a.75.75,0,0,1,.75.75v0a.75.75,0,0,1-.75.75H11.1a1.5,1.5,0,0,1-1.5-1.5v0a0,0,0,0,1,0,0Z" transform="translate(-2.71 14.46) rotate(-45)"/><path class="cls-2" d="M8.94,12.23h3.75a.75.75,0,0,1,.75.75v0a.75.75,0,0,1-.75.75H7.44a0,0,0,0,1,0,0v0a1.5,1.5,0,0,1,1.5-1.5Z" transform="translate(8.64 29.55) rotate(-135)"/></g></svg>