<svg xmlns="http://www.w3.org/2000/svg" viewBox="0 0 24 24"><defs><style>.cls-1{fill:none;}.cls-2{fill:#06c;}</style></defs><title>Icons-external link</title><g id="Layer_55" data-name="Layer 55"><rect class="cls-1" width="24" height="24"/></g><g id="materiale"><path class="cls-2" d="M16.5,7H23a0,0,0,0,1,0,0V7a1,1,0,0,1-1,1H16.5a.5.5,0,0,1-.5-.5v0A.5.5,0,0,1,16.5,7Z" transform="translate(12 27) rotate(-90)"/><path class="cls-2" d="M13.5,4H19a1,1,0,0,1,1,1V5a0,0,0,0,1,0,0H13.5a.5.5,0,0,1-.5-.5v0A.5.5,0,0,1,13.5,4Z"/><rect class="cls-2" x="7.93" y="8.98" width="13" height="1" rx="0.5" transform="translate(-2.48 12.98) rotate(-45)"/><path class="cls-2" d="M17.51,12a.5.5,0,0,0-.5.5V18a2,2,0,0,1-2,2H6a2,2,0,0,1-2-2V9A2,2,0,0,1,6,7h5a.5.5,0,0,0,.5-.5A.51.51,0,0,0,11,6H6A3,3,0,0,0,3,9v9a3,3,0,0,0,3,3h9a3,3,0,0,0,3-3V12.49A.5.5,0,0,0,17.51,12Z"/></g></svg>