<svg xmlns="http://www.w3.org/2000/svg" viewBox="0 0 24 24"><defs><style>.cls-1{fill:none;}.cls-2{fill:#06c;}</style></defs><title>Icons-presentation</title><g id="Layer_55" data-name="Layer 55"><rect class="cls-1" width="24" height="24"/></g><g id="Layer_53" data-name="Layer 53"><rect class="cls-2" x="7.74" y="11.36" width="1.5" height="3.65" rx="0.75"/><rect class="cls-2" x="11.25" y="6.55" width="1.5" height="8.46" rx="0.75"/><rect class="cls-2" x="14.76" y="8.93" width="1.5" height="6.08" rx="0.75"/><path class="cls-2" d="M20,2.51H3v1H4V16a1.5,1.5,0,0,0,1.5,1.5h4.86L9,21.53H10l1.41-4h1.2l1.4,4h1.06l-1.39-4h4.8A1.5,1.5,0,0,0,20,16V3.51h1v-1ZM19,16a.5.5,0,0,1-.5.5H5.5A.5.5,0,0,1,5,16V3.51H19Z"/></g></svg>