<svg xmlns="http://www.w3.org/2000/svg" viewBox="0 0 24 24"><defs><style>.cls-1{fill:none;}.cls-2{fill:#06c;}</style></defs><title>it-Artboard 48</title><g id="cornice"><rect class="cls-1" width="24" height="24"/></g><g id="Layer_42" data-name="Layer 42"><path class="cls-2" d="M21,9V8a3,3,0,0,0-3-3h-.55V4a1,1,0,0,0-2,0V5h-7V4a1,1,0,1,0-2,0V5H6A3,3,0,0,0,3,8V18a3,3,0,0,0,3,3H18a3,3,0,0,0,3-3V9ZM15.46,5h2V6a1,1,0,1,1-2,0Zm-9,0h2V6a1,1,0,1,1-2,0ZM20,18a2,2,0,0,1-2,2H6a2,2,0,0,1-2-2V10H20Z"/></g></svg>