<svg xmlns="http://www.w3.org/2000/svg" viewBox="0 0 24 24"><defs><style>.cls-1{fill:none;}.cls-2{fill:#06c;}</style></defs><title>it-arrow-left-circle</title><g id="cornice"><rect class="cls-1" width="24" height="24"/><rect class="cls-1" width="24" height="24"/><rect class="cls-1" x="-0.01" y="0.06" width="24" height="24"/><rect class="cls-1" width="24" height="24"/></g><g id="Layer_57" data-name="Layer 57"><path class="cls-2" d="M12,3a9,9,0,0,1,6.36,15.36A9,9,0,0,1,5.64,5.62,8.93,8.93,0,0,1,12,3m0-1a10,10,0,1,0,7.07,2.93A9.93,9.93,0,0,0,12,2Z"/><path class="cls-2" d="M7.26,12.66l3.22,3.23a.51.51,0,0,0,.71,0,.5.5,0,0,0,0-.71L8.51,12.5h8a.5.5,0,0,0,0-1h-8l2.68-2.68a.5.5,0,0,0,0-.71.51.51,0,0,0-.71,0L7.3,11.29l0,.05A.92.92,0,0,0,7.26,12.66Z"/></g></svg>