<svg xmlns="http://www.w3.org/2000/svg" viewBox="0 0 24 24"><defs><style>.cls-1{fill:none;}.cls-2{fill:#06c;}</style></defs><title>it-arrow-down-circle</title><g id="cornice"><rect class="cls-1" width="24" height="24"/></g><g id="Layer_59" data-name="Layer 59"><path class="cls-2" d="M12,3a9,9,0,0,1,6.36,15.36A9,9,0,0,1,5.64,5.62,8.93,8.93,0,0,1,12,3m0-1a10,10,0,1,0,7.07,2.93A9.93,9.93,0,0,0,12,2Z"/><path class="cls-2" d="M12.65,16.73l3.23-3.23a.5.5,0,0,0,0-.7.5.5,0,0,0-.71,0l-2.68,2.68v-8A.5.5,0,0,0,12,7a.5.5,0,0,0-.5.5v8L8.81,12.8a.5.5,0,0,0-.71,0,.48.48,0,0,0,0,.7l3.18,3.19,0,0A.94.94,0,0,0,12.65,16.73Z"/></g></svg>