<svg xmlns="http://www.w3.org/2000/svg" viewBox="0 0 24 24"><defs><style>.cls-1{fill:none;}.cls-2{fill:#06c;}</style></defs><title>it-attache</title><g id="cornice"><rect class="cls-1" x="-0.01" y="0.06" width="24" height="24"/><rect class="cls-1" width="24" height="24"/></g><g id="Layer_51" data-name="Layer 51"><path class="cls-2" d="M16,7a.49.49,0,0,0-.5.49v10h0a3.5,3.5,0,0,1-7,0V5.21h0a2.25,2.25,0,0,1,4.5,0V16h0a1,1,0,1,1-2,0h0V7.48A.49.49,0,0,0,10.5,7a.5.5,0,0,0-.5.49V16h0a2,2,0,0,0,4,0h0V5.21a3.25,3.25,0,0,0-6.5,0h0V17.52h0a4.5,4.5,0,0,0,9,0h0v-10A.5.5,0,0,0,16,7Z"/></g></svg>