<svg xmlns="http://www.w3.org/2000/svg" viewBox="0 0 24 24"><defs><style>.cls-1{fill:none;}.cls-2{fill:#06c;}</style></defs><title>it-arrow-up-circle</title><g id="cornice"><rect class="cls-1" width="24" height="24"/></g><g id="Layer_58" data-name="Layer 58"><path class="cls-2" d="M12,3a9,9,0,0,1,6.36,15.36A9,9,0,0,1,5.64,5.62,8.93,8.93,0,0,1,12,3m0-1a10,10,0,1,0,7.07,2.93A9.93,9.93,0,0,0,12,2Z"/><path class="cls-2" d="M11.32,7.27,8.1,10.5a.48.48,0,0,0,0,.7.5.5,0,0,0,.71,0l2.68-2.68v8a.5.5,0,0,0,.5.5.5.5,0,0,0,.5-.5v-8l2.68,2.68a.5.5,0,0,0,.71,0,.5.5,0,0,0,0-.7L12.69,7.31l0,0A.94.94,0,0,0,11.32,7.27Z"/></g></svg>