<svg xmlns="http://www.w3.org/2000/svg" viewBox="0 0 24 24"><defs><style>.cls-1{fill:none;}.cls-2{fill:#06c;}</style></defs><title>it-arrow-right-circle</title><g id="cornice"><rect class="cls-1" x="-0.01" y="0.06" width="24" height="24"/><rect class="cls-1" width="24" height="24"/></g><g id="Layer_56" data-name="Layer 56"><path class="cls-2" d="M12,3a9,9,0,0,1,6.36,15.36A9,9,0,0,1,5.64,5.62,8.93,8.93,0,0,1,12,3m0-1a10,10,0,1,0,7.07,2.93A9.93,9.93,0,0,0,12,2Z"/><path class="cls-2" d="M16.72,11.34,13.49,8.11a.5.5,0,0,0-.71.71l2.69,2.68h-8a.5.5,0,0,0,0,1h8l-2.69,2.68a.5.5,0,0,0,.71.71l3.18-3.18,0-.05A.94.94,0,0,0,16.72,11.34Z"/></g></svg>