<svg xmlns="http://www.w3.org/2000/svg" xmlns:xlink="http://www.w3.org/1999/xlink" viewBox="0 0 24 24"><defs><style>.cls-1,.cls-2{fill:none;}.cls-1{clip-rule:evenodd;}.cls-3{fill:#06c;}.cls-4{clip-path:url(#clip-path);}</style><clipPath id="clip-path"><path class="cls-1" d="M-141.5-198.34a5.13,5.13,0,0,1-.5-1.39,12.74,12.74,0,0,1,3.27,2.54,13.22,13.22,0,0,1,2.54,3.21,4.76,4.76,0,0,1-1.39-.45l-.81-.42-6,6,.5.84a2.75,2.75,0,0,1,.53,1.54,12.45,12.45,0,0,1-3.44-2.66,12.22,12.22,0,0,1-2.65-3.43,2.74,2.74,0,0,1,1.53.53l.84.5,5.95-5.94Zm-8,4.47a1.25,1.25,0,0,0-1,.61,1.21,1.21,0,0,0-.08,1.15,11.82,11.82,0,0,0,2.46,3.4L-150.8-186a7.81,7.81,0,0,0-1,1.26c-.35.54-.48.86-.36,1s.43,0,1-.36a7.81,7.81,0,0,0,1.26-1l2.68-2.68a12,12,0,0,0,3.41,2.46,1.21,1.21,0,0,0,1.15-.08,1.22,1.22,0,0,0,.61-1,4,4,0,0,0-.72-2.23l4.64-4.63a5.42,5.42,0,0,0,1.76.58,1.12,1.12,0,0,0,1.21-.49,1.16,1.16,0,0,0,.1-1.32,14,14,0,0,0-2.77-3.55,15.4,15.4,0,0,0-3.6-2.82,1.26,1.26,0,0,0-1.31.14,1.13,1.13,0,0,0-.48,1.2,6.1,6.1,0,0,0,.59,1.82l-4.61,4.6A4,4,0,0,0-149.49-193.87Z"/></clipPath></defs><title>it-hearing</title><g id="cornice"><rect class="cls-2" width="24" height="24"/></g><g id="Layer_50" data-name="Layer 50"><path class="cls-3" d="M14.83,21.35a3.06,3.06,0,0,1-3.19-3.15c-.06-1.08-1.79-2.67-2.49-3.29-1.41-1.26-2.91-2.79-2.91-5.06A5.87,5.87,0,0,1,12.11,4,6,6,0,0,1,18,10H17a5,5,0,0,0-4.89-5A4.87,4.87,0,0,0,7.25,9.85c0,1.85,1.27,3.14,2.57,4.3s2.75,2.67,2.83,4a2.07,2.07,0,0,0,2.18,2.2A2.19,2.19,0,0,0,17,18h1A3.25,3.25,0,0,1,14.83,21.35Z"/><circle class="cls-3" cx="12.02" cy="9.5" r="2"/><path class="cls-3" d="M5.31,14.44a6.67,6.67,0,0,1-2-4.3A7.41,7.41,0,0,1,7,3.28l.5.86a6.44,6.44,0,0,0-3.19,6A5.85,5.85,0,0,0,6,13.77Z"/></g></svg>