<svg id="Layer_55" data-name="Layer 55" xmlns="http://www.w3.org/2000/svg" viewBox="0 0 24 24"><defs><style>.cls-1{fill:none;}.cls-2{fill:#06c;}</style></defs><title>it-Artboard 71</title><rect class="cls-1" x="-0.01" width="24" height="24"/><path class="cls-2" d="M18,3H6A3,3,0,0,0,3,6V18a3,3,0,0,0,3,3h7.7l.38-.38.7-.7,5.14-5.14.7-.7L21,13.7V6A3,3,0,0,0,18,3ZM6,4.08H18A1.92,1.92,0,0,1,19.91,6V7H4.07V6A1.92,1.92,0,0,1,6,4.08ZM4.07,18V8.5H19.91V13H16a3,3,0,0,0-3,3v3.92H6A1.92,1.92,0,0,1,4.07,18Zm10,1.22V16A1.92,1.92,0,0,1,16,14.08h3.22Z"/></svg>