<svg xmlns="http://www.w3.org/2000/svg" xmlns:xlink="http://www.w3.org/1999/xlink" viewBox="0 0 24 24"><defs><style>.cls-1,.cls-2{fill:none;}.cls-1{clip-rule:evenodd;}.cls-3{clip-path:url(#clip-path);}.cls-4{fill:#06c;}</style><clipPath id="clip-path"><path class="cls-1" d="M-97.5-198.34a5.13,5.13,0,0,1-.5-1.39,12.74,12.74,0,0,1,3.27,2.54A13.22,13.22,0,0,1-92.19-194a4.76,4.76,0,0,1-1.39-.45l-.81-.42-6,6,.5.84a2.75,2.75,0,0,1,.53,1.54,12.45,12.45,0,0,1-3.44-2.66,12.22,12.22,0,0,1-2.65-3.43,2.74,2.74,0,0,1,1.53.53l.84.5,6-5.94Zm-8,4.47a1.25,1.25,0,0,0-1,.61,1.21,1.21,0,0,0-.08,1.15,11.82,11.82,0,0,0,2.46,3.4L-106.8-186a7.81,7.81,0,0,0-1,1.26c-.35.54-.48.86-.36,1s.43,0,1-.36a7.81,7.81,0,0,0,1.26-1l2.68-2.68a12,12,0,0,0,3.41,2.46,1.21,1.21,0,0,0,1.15-.08,1.22,1.22,0,0,0,.61-1,4,4,0,0,0-.72-2.23l4.64-4.63a5.42,5.42,0,0,0,1.76.58,1.12,1.12,0,0,0,1.21-.49,1.16,1.16,0,0,0,.1-1.32,14,14,0,0,0-2.77-3.55,15.4,15.4,0,0,0-3.6-2.82,1.26,1.26,0,0,0-1.31.14,1.13,1.13,0,0,0-.48,1.2,6.1,6.1,0,0,0,.59,1.82l-4.61,4.6A4,4,0,0,0-105.49-193.87Z"/></clipPath></defs><title>it-pencil</title><g id="cornice"><rect class="cls-2" width="24" height="24"/></g><g id="Layer_49" data-name="Layer 49"><path class="cls-4" d="M14.41,2.77,3.8,13.39h0a1,1,0,0,0-.27.67l-.07,4.56a2.13,2.13,0,0,0,2.16,2.16l4.57-.06a1,1,0,0,0,.67-.28h0L21.49,9.85c.82-.83-.08-3.08-2-5S15.24,2,14.41,2.77ZM9.12,17.25,7,15.15,16.2,6l2.09,2.1ZM14.41,4.19l1.08,1.08L6.32,14.45,5.25,13.37h0l9-9ZM5.62,19.79a1.1,1.1,0,0,1-.82-.33,1.14,1.14,0,0,1-.33-.81l.07-4.53,1,1.05h0l.7.7h0L8.39,18h0l.7.7h0l1.05,1.05ZM10.89,19h0L9.82,18,19,8.77l1.07,1.08-.19.19ZM20.8,9.13h0L19.71,8.07,19,7.36,16.91,5.27l-.71-.71L15.13,3.49c.32-.14,1.85.27,3.61,2S20.93,8.86,20.8,9.13Z"/></g></svg>