<svg xmlns="http://www.w3.org/2000/svg" viewBox="0 0 19.7 19.69"><title>it-plugin</title><g id="Layer_2" data-name="Layer 2"><g id="Layer_1-2" data-name="Layer 1"><path d="M6.31,7.72,3.49,10.55h0L2.43,11.61a1.49,1.49,0,0,0,0,2.11h0l1.42,1.41L0,19l.7.7,3.85-3.85L6,17.25A1.5,1.5,0,0,0,7,17.69a1.42,1.42,0,0,0,1.06-.44l1.06-1.06h0L12,13.37Zm1.07,8.84a.51.51,0,0,1-.71,0L3.13,13a.51.51,0,0,1,0-.71L3.49,12,7.73,16.2ZM4.19,11.25,6.31,9.13l4.25,4.25L8.44,15.5Zm9.55-8.83a1.49,1.49,0,0,0-2.11,0h0L9.14,4.89,10.56,6.3,8.44,8.43l.7.7L11.26,7l1.42,1.42-2.12,2.12.7.7,2.13-2.12,1.46,1.42,2.47-2.48a1.49,1.49,0,0,0,0-2.11h0Zm2.83,5L14.85,9.13,10.56,4.89l1.76-1.77a.51.51,0,0,1,.71,0l3.54,3.54A.51.51,0,0,1,16.57,7.37ZM6.31,10.55l.71.7L6.31,12l-.7-.71Zm2.83,2.83-.7.7-.71-.7.71-.71Zm6.71-8.84-.7-.7L19,0l.7.7Z"/></g></g></svg>